<?xml version="1.0" encoding="utf-8"?>
<!-- Generator: Adobe Illustrator 18.0.0, SVG Export Plug-In . SVG Version: 6.00 Build 0)  -->
<!DOCTYPE svg PUBLIC "-//W3C//DTD SVG 1.1//EN" "http://www.w3.org/Graphics/SVG/1.1/DTD/svg11.dtd">
<svg version="1.1" id="_x31_0" xmlns="http://www.w3.org/2000/svg" xmlns:xlink="http://www.w3.org/1999/xlink" x="0px" y="0px"
	 viewBox="0 0 512 512" style="enable-background:new 0 0 512 512;" xml:space="preserve">
<style type="text/css">
	.st0{fill:#1dace0;}
</style>
<g>
	<path class="st0" d="M363.047,88.492v-21.59h-42.11l-6.594-0.012c0.449-2.914,0.754-5.871,0.754-8.906
		C315.098,26.012,289.09,0,257.117,0c-31.972,0-57.98,26.012-57.98,57.984c0,2.895,0.285,5.711,0.703,8.493
		c0.019,0.148,0.027,0.274,0.046,0.426h-50.926v21.59H54.137v418.266l-0.004,5.164h0.004V512h403.73V88.492H363.047z
		 M420.016,478.817H91.984V121.672h56.977v16.594H361.66h1.305l0,0h0.082v-16.594h56.972v355.046L420.016,478.817z M257.117,35.683
		c12.317,0,22.301,9.981,22.301,22.301c0,1.422-0.16,2.809-0.418,4.157c-0.031,0.164-0.05,0.332-0.086,0.496
		c-0.254,1.164-0.622,2.285-1.047,3.379c-3.23,8.335-11.274,14.266-20.75,14.266c-9.476,0-17.519-5.93-20.75-14.266
		c-0.426-1.094-0.793-2.211-1.047-3.375c-0.035-0.164-0.054-0.336-0.086-0.504c-0.258-1.348-0.418-2.73-0.418-4.153
		C234.816,45.664,244.801,35.683,257.117,35.683z"/>
	<polygon class="st0" points="369.379,199.324 369.379,199.18 369.379,199.18 369.379,199.102 142.625,199.102 142.625,222.637 
		369.379,222.637 	"/>
	<polygon class="st0" points="369.379,265 142.625,265 142.625,288.535 369.379,288.535 369.379,265.222 369.379,265.078 
		369.379,265.078 	"/>
	<polygon class="st0" points="369.379,330.894 142.625,330.894 142.625,354.43 369.379,354.43 369.379,331.117 369.379,330.973 
		369.379,330.973 	"/>
	<polygon class="st0" points="369.379,396.871 369.379,396.789 144.086,396.789 142.703,396.789 142.703,396.789 142.625,396.789 
		142.625,420.324 369.379,420.324 369.379,397.012 369.379,396.871 	"/>
</g>
</svg>
